<svg xmlns="http://www.w3.org/2000/svg" xmlns:xlink="http://www.w3.org/1999/xlink" width="496.8560791015625" height="109.06399536132812" viewBox="0 0 496.8560791015625 109.06399536132812" fill="none">
<g  clip-path="url(#clip-path-Z_gb_wSvvdYUS8EpuK-ea)">
<path d="M32.8808 62.6359C32.6113 62.4803 32.3323 62.344 32.0439 62.227C31.7555 62.1106 31.4604 62.0148 31.1587 61.9396C30.8569 61.8644 30.5515 61.8107 30.2423 61.7784C29.933 61.7461 29.6231 61.7356 29.3125 61.7467L14.7391 36.435C14.6914 36.3509 14.6492 36.2641 14.6127 36.1746C14.5762 36.0851 14.5456 35.9938 14.5208 35.9007C14.4961 35.807 14.4776 35.7123 14.4651 35.6165C14.4527 35.5207 14.4465 35.4243 14.4465 35.3275C14.4465 35.2306 14.4527 35.1343 14.4651 35.0385C14.4776 34.9427 14.4961 34.8479 14.5208 34.7542C14.5456 34.6611 14.5762 34.5698 14.6127 34.4803C14.6492 34.3908 14.6914 34.304 14.7391 34.2199L15.718 32.5208L34.3886 -0.0317993L32.0203 -0.0317993C31.8352 -0.0317993 31.6502 -0.0257176 31.4654 -0.0135299C31.2806 -0.00136653 31.0964 0.0169028 30.9128 0.0412539C30.7292 0.0656052 30.5466 0.0957711 30.365 0.131753C30.1833 0.168291 30.0031 0.210621 29.8242 0.25879C29.6453 0.306959 29.4681 0.360701 29.2928 0.419967C29.1174 0.479791 28.9441 0.545164 28.7729 0.616085C28.6018 0.687538 28.4331 0.764302 28.2669 0.846343C28.1007 0.928383 27.9374 1.01571 27.7769 1.10834C27.6164 1.2015 27.459 1.29968 27.3049 1.4029C27.1507 1.50612 27 1.61409 26.8528 1.72683C26.7057 1.84011 26.5623 1.95789 26.4228 2.08015C26.2833 2.20242 26.1479 2.32945 26.0166 2.46126C25.8853 2.59252 25.7584 2.72777 25.636 2.86697C25.5134 3.00671 25.3956 3.15042 25.2824 3.29809C25.1692 3.44524 25.0608 3.5961 24.9574 3.75066C24.8541 3.90522 24.7558 4.06296 24.6626 4.22387L9.28398 31.052C9.19166 31.2134 9.10467 31.3777 9.02298 31.545C8.94135 31.7117 8.8652 31.8814 8.79451 32.0539C8.72388 32.226 8.65889 32.4001 8.59952 32.5764C8.5402 32.7526 8.48665 32.9307 8.43886 33.1107C8.39108 33.2907 8.34918 33.472 8.31318 33.6546C8.27713 33.8372 8.24705 34.0208 8.22295 34.2056C8.19889 34.3904 8.18082 34.5756 8.16871 34.7614C8.15666 34.9472 8.15063 35.1332 8.15063 35.3195C8.15063 35.5059 8.15666 35.6919 8.16871 35.8777C8.18082 36.0635 8.19889 36.2487 8.22295 36.4335C8.24705 36.6182 8.27713 36.8019 8.31318 36.9845C8.34918 37.1671 8.39108 37.3484 8.43886 37.5283C8.48665 37.7083 8.5402 37.8864 8.59952 38.0627C8.65889 38.2389 8.72388 38.4131 8.79451 38.5851C8.8652 38.7576 8.94135 38.9273 9.02298 39.094C9.10467 39.2613 9.19166 39.4257 9.28398 39.5871L23.881 64.9384L23.7942 65.0655C23.7393 65.1602 23.6868 65.2562 23.6367 65.3537C23.5865 65.4511 23.5388 65.5495 23.4935 65.649C23.4481 65.7485 23.4053 65.8493 23.3649 65.9515C23.3244 66.0531 23.2865 66.1558 23.2512 66.2596C23.2158 66.3633 23.183 66.4678 23.1526 66.5732C23.1224 66.6786 23.0947 66.7844 23.0696 66.8908C23.0445 66.9977 23.022 67.1052 23.0021 67.2131C22.9823 67.3206 22.9651 67.4285 22.9505 67.5371C22.9359 67.6461 22.9239 67.7552 22.9147 67.8642C22.9055 67.9732 22.8988 68.0825 22.895 68.1921C22.8911 68.3017 22.8898 68.4112 22.8913 68.5208C22.8927 68.6309 22.8968 68.7405 22.9036 68.8495C22.9104 68.9591 22.9198 69.0684 22.932 69.1774C22.9441 69.2864 22.9588 69.395 22.9763 69.5029C22.9937 69.6109 23.0139 69.7187 23.0365 69.8261C23.0592 69.9335 23.0845 70.0402 23.1124 70.146C23.1403 70.2519 23.1707 70.357 23.2038 70.4612C23.2369 70.566 23.2724 70.6698 23.3105 70.7725C23.3487 70.8751 23.3892 70.9768 23.4323 71.0774C23.4753 71.178 23.5209 71.2774 23.5688 71.3759C23.6167 71.4743 23.6671 71.5718 23.7197 71.6681C23.7724 71.7639 23.8274 71.8584 23.8847 71.9515C23.942 72.0447 24.0015 72.1365 24.0634 72.227C24.1252 72.3171 24.1891 72.4057 24.2552 72.493C24.3214 72.5803 24.3896 72.6658 24.4598 72.7495C24.5302 72.8331 24.6025 72.9152 24.6768 72.9956C24.7511 73.0755 24.8273 73.1538 24.9054 73.2306C24.9836 73.3068 25.0635 73.3812 25.1453 73.4537C25.227 73.5262 25.3105 73.5966 25.3957 73.6649C25.4809 73.7332 25.5677 73.7993 25.6562 73.8634C25.7447 73.9275 25.8346 73.9894 25.9261 74.0492C26.0176 74.109 26.1104 74.1664 26.2047 74.2215C26.299 74.2765 26.3945 74.3292 26.4914 74.3795C26.5883 74.4297 26.6862 74.4777 26.7854 74.5232C26.8846 74.5687 26.9848 74.6115 27.0861 74.6518C27.1874 74.6925 27.2896 74.7306 27.3927 74.7661C27.4959 74.8016 27.5998 74.8344 27.7046 74.8646C27.8093 74.8948 27.9147 74.9225 28.0208 74.9479C28.1269 74.9729 28.2336 74.9953 28.3408 75.0154C28.448 75.035 28.5556 75.0522 28.6637 75.067C28.7717 75.0813 28.88 75.093 28.9886 75.102C29.0972 75.1115 29.206 75.1181 29.315 75.1218C29.4239 75.1256 29.5329 75.1266 29.6418 75.125C29.7508 75.1234 29.8597 75.1192 29.9685 75.1123C30.0773 75.1054 30.1858 75.0956 30.2941 75.0829C30.4025 75.0708 30.5104 75.0559 30.618 75.0385C30.7256 75.0205 30.8326 75.0001 30.9392 74.9773C31.0458 74.9545 31.1517 74.9289 31.257 74.9003C31.3624 74.8723 31.467 74.8416 31.5708 74.8082C31.6747 74.7749 31.7776 74.7391 31.8797 74.701C31.9818 74.6624 32.0829 74.6214 32.1829 74.578C32.283 74.5346 32.3819 74.4888 32.4797 74.4406C32.5776 74.3919 32.6742 74.3411 32.7696 74.2882C32.8649 74.2352 32.9589 74.1796 33.0515 74.1214C33.1442 74.0637 33.2354 74.0039 33.3251 73.942C33.4149 73.8795 33.503 73.815 33.5896 73.7483C33.6762 73.6816 33.761 73.6131 33.8442 73.5426C33.9274 73.4717 34.0089 73.3989 34.0886 73.3243C34.1682 73.2491 34.246 73.1724 34.3219 73.094C34.3978 73.0152 34.4718 72.9344 34.5437 72.8519C34.6157 72.7699 34.6856 72.6859 34.7535 72.6002C34.8213 72.5144 34.8871 72.4269 34.9507 72.3374C35.0143 72.2485 35.0757 72.158 35.1348 72.0658C35.194 71.9737 35.2509 71.8803 35.3055 71.7856C35.3601 71.6909 35.4123 71.5948 35.4623 71.4974C35.5122 71.4 35.5597 71.3013 35.6048 71.2012C35.6499 71.1017 35.6924 71.0009 35.7326 70.8987C35.7728 70.7971 35.8105 70.6944 35.8456 70.5907C35.8807 70.4864 35.9133 70.3816 35.9433 70.2763C35.9734 70.1709 36.0008 70.0651 36.0257 69.9587C36.0505 69.8517 36.0727 69.7443 36.0924 69.6363C36.1119 69.5289 36.1289 69.4206 36.1432 69.3116C36.1575 69.203 36.1692 69.094 36.1782 68.9845C36.1872 68.8755 36.1935 68.7661 36.1971 68.6566C36.2008 68.547 36.2018 68.4374 36.2001 68.3279C36.1984 68.2183 36.194 68.1087 36.1869 67.9992C36.1799 67.8901 36.1702 67.7811 36.1578 67.672C36.1454 67.563 36.1303 67.4545 36.1127 67.3465C36.095 67.238 36.0747 67.1303 36.0517 67.0234C36.0287 66.9165 36.0032 66.8098 35.9751 66.7034C35.9469 66.5976 35.9162 66.4925 35.8829 66.3882C35.8496 66.284 35.8138 66.1804 35.7754 66.0778C35.737 65.9751 35.6962 65.8735 35.6529 65.7729C35.6095 65.6723 35.5638 65.5728 35.5157 65.4743C35.4675 65.3764 35.417 65.2796 35.364 65.1838C35.3111 65.0874 35.2559 64.9926 35.1984 64.8995C35.1408 64.8069 35.0811 64.7153 35.0191 64.6248C34.9571 64.5349 34.8929 64.4464 34.8266 64.3596C34.7602 64.2723 34.6918 64.1868 34.6213 64.1032C34.5508 64.0196 34.4782 63.9378 34.4038 63.8578C34.3293 63.7779 34.2529 63.6998 34.1745 63.6236C34.0962 63.5474 34.0161 63.473 33.9342 63.4005C33.8522 63.3285 33.7685 63.2584 33.6832 63.1901C33.5978 63.1218 33.5108 63.0559 33.4222 62.9924C33.3336 62.9283 33.2435 62.8667 33.1519 62.8074C33.0603 62.7482 32.9673 62.6909 32.8729 62.6359L32.8808 62.6359Z"   fill="#2E73BA" >
</path>
<path d="M84.7875 56.9591C84.6401 56.9597 84.4928 56.965 84.3454 56.975C84.198 56.9851 84.0515 57.0001 83.9056 57.0203C83.7594 57.0404 83.6138 57.0653 83.4691 57.0949C83.3248 57.1245 83.1817 57.1592 83.0396 57.1989C82.8969 57.2381 82.7562 57.282 82.6172 57.3307C82.4778 57.3794 82.3401 57.4329 82.2044 57.4911C82.0686 57.5488 81.9349 57.6112 81.8033 57.6785C81.6717 57.7452 81.5426 57.8164 81.4157 57.892C81.2888 57.9677 81.1644 58.0474 81.0423 58.131C80.9207 58.2152 80.802 58.3033 80.6862 58.3954C80.5704 58.487 80.4579 58.5825 80.3484 58.682C80.2389 58.7816 80.1328 58.8845 80.0302 58.9909C79.9276 59.0973 79.8287 59.2071 79.7334 59.3204C79.6376 59.4337 79.546 59.5498 79.4586 59.6689C79.3708 59.788 79.2871 59.91 79.2076 60.0349C79.1276 60.1599 79.0521 60.2874 78.981 60.4177C78.91 60.5473 78.8431 60.6794 78.7805 60.8138C78.7179 60.9483 78.6599 61.0846 78.6068 61.2227C78.5531 61.3609 78.5044 61.5009 78.4608 61.6427C78.4166 61.784 78.3771 61.927 78.3423 62.0715C78.3076 62.2154 78.2776 62.3605 78.2523 62.5066C78.2271 62.6527 78.2068 62.7996 78.1916 62.9472C78.1763 63.0949 78.1657 63.2428 78.16 63.391C78.1547 63.5393 78.1542 63.6875 78.1584 63.8357C78.1626 63.9839 78.1716 64.1318 78.1852 64.2795C78.1995 64.4272 78.2184 64.5743 78.2421 64.7209C78.2658 64.8676 78.2944 65.0131 78.3281 65.1576C78.3613 65.3021 78.3994 65.4453 78.4426 65.5872C78.4852 65.729 78.5326 65.8693 78.5847 66.008C78.6368 66.1467 78.6937 66.2835 78.7552 66.4184C78.8163 66.5534 78.8818 66.6862 78.9518 66.817C79.0218 66.9478 79.096 67.0758 79.1744 67.2013L64.6643 92.5605C64.6163 92.6441 64.5632 92.7243 64.5048 92.8011C64.4464 92.8773 64.3832 92.9496 64.3153 93.0179C64.2474 93.0862 64.1753 93.1497 64.099 93.2084C64.0227 93.2672 63.9429 93.3206 63.8598 93.3688C63.7767 93.417 63.6909 93.4596 63.6024 93.4966C63.5135 93.5337 63.4227 93.5647 63.3301 93.5895C63.2375 93.6144 63.1435 93.6332 63.0482 93.6459C62.953 93.6581 62.8574 93.6642 62.7617 93.6642L23.4784 93.6642L24.6547 95.7126C24.7469 95.874 24.8444 96.0323 24.9469 96.1874C25.0495 96.3424 25.157 96.4941 25.2695 96.6423C25.382 96.79 25.4991 96.9343 25.621 97.075C25.7428 97.2153 25.8691 97.3513 25.9998 97.4831C26.1305 97.6149 26.2654 97.7425 26.4044 97.8658C26.5434 97.9887 26.6863 98.107 26.833 98.2207C26.9798 98.3345 27.1301 98.4433 27.2839 98.5471C27.4377 98.6508 27.5948 98.7493 27.755 98.8424C27.9153 98.9361 28.0784 99.0242 28.2443 99.1068C28.4103 99.1894 28.5788 99.2664 28.7498 99.3378C28.9208 99.4093 29.094 99.4752 29.2693 99.5355C29.4446 99.5959 29.6217 99.6501 29.8005 99.6983C29.9793 99.747 30.1596 99.7896 30.3412 99.8261C30.5228 99.8627 30.7054 99.8931 30.889 99.9174C31.0726 99.9423 31.2568 99.9609 31.4416 99.973C31.6264 99.9857 31.8114 99.9921 31.9966 99.9921L62.7854 99.9921C62.9706 99.9915 63.1556 99.9852 63.3403 99.973C63.5251 99.9603 63.7093 99.9418 63.893 99.9174C64.0767 99.8926 64.2593 99.8619 64.4408 99.8253C64.6224 99.7888 64.8024 99.7462 64.9808 99.6975C65.1598 99.6488 65.3369 99.5945 65.5121 99.5347C65.6874 99.4744 65.8605 99.4085 66.0316 99.3371C66.2027 99.2656 66.3711 99.1883 66.5368 99.1052C66.7032 99.0226 66.8663 98.9347 67.0263 98.8416C67.1868 98.7479 67.3439 98.6492 67.4976 98.5455C67.6513 98.4417 67.8015 98.3332 67.9484 98.2199C68.0952 98.1062 68.2381 97.9878 68.3771 97.865C68.516 97.7417 68.6508 97.6141 68.7813 97.4823C68.9123 97.3505 69.0386 97.2145 69.1602 97.0742C69.2823 96.934 69.3996 96.7898 69.5123 96.6415C69.625 96.4939 69.7326 96.3424 69.8352 96.1874C69.9378 96.0323 70.0352 95.874 70.1273 95.7126L84.6533 70.3057L84.8111 70.3057C84.9201 70.3057 85.029 70.3031 85.138 70.2978C85.2464 70.2924 85.3548 70.2843 85.4632 70.2731C85.5716 70.2626 85.6798 70.2493 85.7877 70.2334C85.8956 70.217 86.003 70.1983 86.1098 70.1771C86.2166 70.1559 86.3227 70.1318 86.4279 70.1048C86.5337 70.0784 86.6387 70.0492 86.7429 70.0175C86.8471 69.9857 86.9506 69.9513 87.0532 69.9143C87.1558 69.8772 87.2574 69.8378 87.3579 69.796C87.4584 69.7541 87.5579 69.7099 87.6563 69.6634C87.7548 69.6163 87.8521 69.5671 87.9484 69.5157C88.0442 69.4639 88.1389 69.4099 88.2326 69.3537C88.3258 69.2971 88.4176 69.2384 88.5082 69.1775C88.5992 69.1166 88.6884 69.0536 88.7758 68.9885C88.8632 68.9234 88.9489 68.8559 89.0331 68.786C89.1174 68.7167 89.1997 68.6453 89.2802 68.5717C89.3613 68.4981 89.4403 68.4226 89.5171 68.3454C89.5939 68.2681 89.6689 68.1887 89.7421 68.1072C89.8153 68.0262 89.8863 67.9434 89.9552 67.8587C90.0247 67.774 90.0918 67.6878 90.1565 67.5999C90.2213 67.5115 90.2839 67.4218 90.3444 67.3307C90.405 67.2396 90.4634 67.1473 90.5197 67.0536C90.5755 66.9594 90.6292 66.8641 90.6807 66.7678C90.7318 66.6709 90.7808 66.573 90.8276 66.474C90.8739 66.375 90.9178 66.275 90.9594 66.1739C91.001 66.0728 91.0402 65.9706 91.077 65.8674C91.1139 65.7642 91.1481 65.6602 91.1797 65.5554C91.2113 65.4506 91.2402 65.345 91.2665 65.2386C91.2934 65.1328 91.3173 65.0261 91.3384 64.9186C91.3594 64.8112 91.3781 64.7032 91.3944 64.5947C91.4102 64.4862 91.4234 64.3774 91.4339 64.2684C91.4449 64.1593 91.4531 64.0503 91.4584 63.9413C91.4636 63.8317 91.4662 63.7221 91.4662 63.6126C91.4662 63.503 91.4636 63.3934 91.4584 63.2839C91.4531 63.1748 91.4449 63.0658 91.4339 62.9567C91.4234 62.8477 91.4102 62.7389 91.3944 62.6304C91.3781 62.5219 91.3594 62.4139 91.3384 62.3065C91.3173 62.199 91.2934 62.0924 91.2665 61.9865C91.2402 61.8801 91.2113 61.7745 91.1797 61.6697C91.1481 61.5649 91.1139 61.4609 91.077 61.3577C91.0402 61.2545 91.001 61.1523 90.9594 61.0512C90.9178 60.9501 90.8739 60.8501 90.8276 60.7511C90.7808 60.6521 90.7318 60.5542 90.6807 60.4573C90.6292 60.361 90.5755 60.2657 90.5197 60.1715C90.4634 60.0778 90.405 59.9852 90.3444 59.8936C90.2839 59.8026 90.2213 59.7131 90.1565 59.6253C90.0918 59.5374 90.0247 59.4511 89.9552 59.3664C89.8863 59.2817 89.8153 59.1989 89.7421 59.1179C89.6689 59.0364 89.5939 58.957 89.5171 58.8797C89.4403 58.8025 89.3613 58.727 89.2802 58.6534C89.1997 58.5799 89.1174 58.5084 89.0331 58.4391C88.9489 58.3692 88.8632 58.3017 88.7758 58.2366C88.6884 58.1715 88.5992 58.1085 88.5082 58.0476C88.4176 57.9868 88.3258 57.928 88.2326 57.8714C88.1389 57.8153 88.0442 57.7613 87.9484 57.7094C87.8521 57.6581 87.7548 57.6088 87.6563 57.5617C87.5579 57.5152 87.4584 57.471 87.3579 57.4292C87.2574 57.3873 87.1558 57.3479 87.0532 57.3108C86.9506 57.2738 86.8471 57.2394 86.7429 57.2076C86.6387 57.1759 86.5337 57.1468 86.4279 57.1203C86.3227 57.0933 86.2166 57.0692 86.1098 57.048C86.003 57.0269 85.8956 57.0081 85.7877 56.9917C85.6798 56.9758 85.5716 56.9626 85.4632 56.952C85.3548 56.9409 85.2464 56.9327 85.138 56.9274C85.029 56.9221 84.9201 56.9194 84.8111 56.9194L84.7875 56.9591Z"   fill="#2E73BA" >
</path>
<path d="M102.439 60.4125L87.8425 35.0612L87.9293 34.9342C87.9909 34.8284 88.0495 34.7206 88.1054 34.6111C88.1606 34.502 88.2133 34.3914 88.2632 34.2792C88.3127 34.167 88.359 34.0534 88.4022 33.9386C88.4458 33.8237 88.4861 33.7081 88.523 33.5916C88.5603 33.4746 88.5943 33.3566 88.6248 33.2375C88.6554 33.1184 88.6827 32.9987 88.7069 32.8786C88.7312 32.7585 88.7519 32.6375 88.7693 32.5158C88.7867 32.3946 88.8009 32.2728 88.8119 32.1505C88.8224 32.0283 88.8298 31.9057 88.834 31.783C88.8382 31.6602 88.839 31.5373 88.8364 31.4145C88.8338 31.2917 88.8279 31.1692 88.819 31.0469C88.8095 30.9247 88.7969 30.8027 88.7811 30.6809C88.7648 30.5592 88.7456 30.438 88.7235 30.3173C88.7008 30.1966 88.6748 30.0767 88.6453 29.9576C88.6164 29.838 88.584 29.7194 88.5482 29.6019C88.513 29.4849 88.4743 29.3688 88.4322 29.2534C88.3901 29.138 88.3451 29.0239 88.2972 28.9112C88.2488 28.7984 88.1975 28.687 88.1432 28.5769C88.089 28.4668 88.0319 28.3583 87.9719 28.2514C87.9114 28.145 87.8482 28.0399 87.7825 27.9362C87.7167 27.833 87.648 27.7316 87.5764 27.6321C87.5048 27.5326 87.4306 27.4352 87.3538 27.3399C87.277 27.2446 87.1977 27.1515 87.1162 27.0604C87.0341 26.9694 86.9496 26.8805 86.8628 26.7937C86.7765 26.7074 86.6875 26.6235 86.5959 26.542C86.5043 26.4605 86.4109 26.3816 86.3157 26.3054C86.2199 26.2292 86.1222 26.1556 86.0228 26.0847C85.9228 26.0137 85.8212 25.9457 85.718 25.8806C85.6144 25.8155 85.5094 25.753 85.4031 25.6932C85.2962 25.6339 85.1878 25.5776 85.0778 25.5241C84.9678 25.4706 84.8565 25.4204 84.7439 25.3733C84.6312 25.3256 84.5173 25.2812 84.402 25.2399C84.2873 25.1991 84.1713 25.1615 84.0539 25.1271C83.937 25.0922 83.8192 25.0607 83.7002 25.0326C83.5812 25.0046 83.4618 24.9797 83.3418 24.958C83.2218 24.9368 83.101 24.9188 82.9794 24.904C82.8584 24.8892 82.7371 24.8776 82.6155 24.8691C82.4934 24.8611 82.3713 24.8567 82.2492 24.8556C82.1271 24.854 82.0052 24.8559 81.8837 24.8611C81.7616 24.8665 81.6397 24.8752 81.5181 24.8874C81.3966 24.8995 81.2755 24.9149 81.155 24.9334C81.0345 24.9525 80.9145 24.9747 80.795 25.0001C80.6755 25.0255 80.5568 25.0541 80.4389 25.0859C80.3211 25.1181 80.2042 25.1536 80.0884 25.1922C79.9726 25.2303 79.8579 25.2719 79.7442 25.3169C79.6305 25.3613 79.5182 25.4093 79.4071 25.4606C79.2961 25.5114 79.1863 25.5654 79.0779 25.6226C78.97 25.6797 78.8637 25.7398 78.759 25.8028C78.6543 25.8658 78.5511 25.9314 78.4495 25.9997C78.3485 26.0685 78.2493 26.14 78.1519 26.2141C78.0545 26.2882 77.9593 26.3649 77.8661 26.4443C77.7735 26.5237 77.6827 26.6055 77.5938 26.6897C77.5053 26.7743 77.419 26.8612 77.3348 26.9501C77.2511 27.0395 77.1698 27.1311 77.0909 27.2248C77.0119 27.3185 76.9356 27.4143 76.8619 27.5122C76.7883 27.6101 76.7175 27.7099 76.6496 27.8115C76.5812 27.9131 76.5156 28.0169 76.453 28.1228C76.3904 28.2281 76.3309 28.335 76.2746 28.4435C76.2177 28.5526 76.1641 28.6629 76.1135 28.7746C76.0625 28.8863 76.0148 28.9993 75.9706 29.1136C75.9259 29.228 75.8846 29.3434 75.8467 29.4598C75.8083 29.5763 75.7733 29.6938 75.7417 29.8123C75.7096 29.9309 75.6809 30.0503 75.6556 30.1704C75.6304 30.2906 75.6085 30.4113 75.5901 30.5325C75.5717 30.6537 75.5564 30.7754 75.5443 30.8977C75.5322 31.02 75.5235 31.1425 75.5183 31.2653C75.513 31.3875 75.5112 31.5101 75.5128 31.6329C75.5138 31.7557 75.5185 31.8785 75.527 32.0013C75.5349 32.1236 75.5462 32.2456 75.5609 32.3673C75.5756 32.4896 75.5938 32.6111 75.6154 32.7317C75.637 32.8524 75.6617 32.9725 75.6896 33.0922C75.7175 33.2118 75.7488 33.3304 75.7835 33.4479C75.8177 33.566 75.8554 33.6827 75.8964 33.798C75.937 33.9139 75.9809 34.0285 76.0283 34.1418C76.0751 34.2551 76.1251 34.3671 76.1783 34.4777C76.2319 34.5878 76.2883 34.6966 76.3472 34.804C76.4062 34.9114 76.4683 35.0173 76.5335 35.1216C76.5983 35.2253 76.6659 35.3272 76.7364 35.4272C76.8069 35.5273 76.8801 35.6255 76.9559 35.7218C77.0322 35.8181 77.1109 35.9121 77.1919 36.0037C77.273 36.0958 77.3564 36.1855 77.4422 36.2728C77.528 36.3596 77.6161 36.4443 77.7066 36.5269C77.7972 36.6089 77.8901 36.6886 77.9853 36.7659C78.0801 36.8431 78.1769 36.9178 78.2758 36.9898C78.3748 37.0618 78.4756 37.1309 78.5782 37.197C78.6808 37.2631 78.7853 37.3264 78.8916 37.3868C78.9979 37.4471 79.1058 37.5048 79.2153 37.5598C79.3248 37.6144 79.4356 37.6657 79.5477 37.7139C79.6598 37.7621 79.7732 37.8073 79.8879 37.8496C80.0026 37.892 80.1184 37.9309 80.2353 37.9664C80.3516 38.0023 80.4692 38.0349 80.5882 38.064C80.7066 38.0931 80.8258 38.119 80.9458 38.1418C81.0658 38.1646 81.1863 38.1839 81.3074 38.1998C81.4284 38.2157 81.5497 38.2284 81.6713 38.2379C81.7929 38.2469 81.9147 38.2527 82.0368 38.2554C82.1589 38.258 82.281 38.2572 82.4031 38.253L96.9844 63.5646C97.0317 63.6488 97.0736 63.7355 97.1099 63.825C97.1462 63.9145 97.1764 64.006 97.2007 64.0997C97.2254 64.1929 97.2439 64.2873 97.2559 64.3832C97.2686 64.479 97.2749 64.5753 97.2749 64.6722C97.2749 64.769 97.2686 64.8653 97.2559 64.9612C97.2439 65.057 97.2254 65.1515 97.2007 65.2446C97.1764 65.3383 97.1462 65.4299 97.1099 65.5193C97.0736 65.6088 97.0317 65.6956 96.9844 65.7798L96.0054 67.4788L77.3664 99.9917L79.7348 99.9917C79.92 99.9917 80.1048 99.9856 80.289 99.9735C80.4737 99.9613 80.6579 99.9431 80.8416 99.9187C81.0247 99.8943 81.2071 99.8641 81.3887 99.8282C81.5702 99.7916 81.7505 99.7493 81.9294 99.7011C82.1079 99.6535 82.2847 99.5997 82.46 99.54C82.6352 99.4802 82.8084 99.4147 82.9794 99.3438C83.1505 99.2724 83.3191 99.1956 83.4855 99.1136C83.6513 99.0316 83.8144 98.9442 83.9749 98.8516C84.1354 98.7585 84.2925 98.6602 84.4462 98.557C84.6004 98.4538 84.751 98.3458 84.8978 98.2331C85.0446 98.1198 85.1878 98.0021 85.3273 97.8798C85.4668 97.757 85.602 97.6299 85.733 97.4987C85.8641 97.3674 85.991 97.2319 86.1136 97.0922C86.2357 96.953 86.3533 96.8095 86.4664 96.6618C86.5791 96.5147 86.6869 96.3639 86.7901 96.2093C86.8933 96.0547 86.9914 95.897 87.0846 95.7361L102.471 68.9397C102.563 68.7783 102.649 68.6137 102.73 68.4459C102.811 68.2786 102.886 68.109 102.956 67.937C103.026 67.7649 103.09 67.5906 103.148 67.4137C103.207 67.2375 103.26 67.0594 103.307 66.8794C103.354 66.6994 103.395 66.5181 103.43 66.3355C103.466 66.1529 103.495 65.9693 103.518 65.7845C103.542 65.6003 103.559 65.4153 103.57 65.2295C103.582 65.0437 103.587 64.858 103.587 64.6722C103.586 64.4858 103.579 64.3 103.566 64.1148C103.553 63.929 103.535 63.744 103.51 63.5598C103.485 63.3751 103.455 63.1917 103.418 63.0096C103.382 62.827 103.339 62.646 103.291 62.4665C103.242 62.2871 103.188 62.1093 103.128 61.933C103.068 61.7573 103.003 61.5834 102.931 61.4114C102.86 61.2399 102.784 61.0707 102.702 60.904C102.619 60.7373 102.532 60.5735 102.439 60.4125Z"   fill="#6DA230" >
</path>
<path d="M110.871 45.6846L95.5241 18.8883C95.4314 18.7268 95.3335 18.5688 95.2304 18.4143C95.1273 18.2592 95.0193 18.1078 94.9068 17.9601C94.7936 17.8124 94.6759 17.6685 94.5539 17.5282C94.4312 17.3885 94.3044 17.2527 94.1734 17.1209C94.0423 16.9896 93.907 16.8626 93.7676 16.7398C93.6281 16.617 93.485 16.499 93.3381 16.3857C93.1907 16.2724 93.0399 16.1642 92.8858 16.061C92.7315 15.9577 92.5742 15.8596 92.4137 15.7664C92.2531 15.6738 92.0897 15.5864 91.9234 15.5044C91.7571 15.4223 91.5881 15.3459 91.4166 15.2749C91.2455 15.204 91.0721 15.1386 90.8963 15.0788C90.7205 15.0195 90.5431 14.9658 90.3642 14.9176C90.1853 14.87 90.0047 14.8282 89.8227 14.7922C89.6411 14.7562 89.4584 14.7263 89.2748 14.7025C89.0911 14.6787 88.9066 14.6609 88.7214 14.6493C88.5367 14.6376 88.3516 14.6321 88.1664 14.6326L59.0434 14.6723L58.9724 14.5294C58.9118 14.4225 58.8484 14.3174 58.7821 14.2142C58.7158 14.111 58.6465 14.0093 58.5745 13.9093C58.5029 13.8098 58.4284 13.7124 58.351 13.6171C58.2742 13.5219 58.1944 13.4287 58.1118 13.3377C58.0297 13.2466 57.945 13.1579 57.8576 13.0717C57.7708 12.9854 57.6816 12.9015 57.59 12.82C57.4979 12.7385 57.4039 12.6596 57.3082 12.5834C57.2119 12.5072 57.1137 12.4339 57.0137 12.3634C56.9137 12.2925 56.8118 12.2245 56.7082 12.1594C56.6045 12.0943 56.499 12.0321 56.3916 11.9728C56.2847 11.9135 56.1761 11.8572 56.0656 11.8037C55.9554 11.7508 55.8437 11.7008 55.7308 11.6537C55.6177 11.6065 55.5036 11.5626 55.3882 11.5218C55.2728 11.4806 55.1564 11.443 55.0389 11.4091C54.9214 11.3747 54.8032 11.3435 54.684 11.3154C54.5648 11.2879 54.4451 11.2636 54.3246 11.2424C54.204 11.2212 54.083 11.2032 53.9616 11.1884C53.8402 11.1741 53.7184 11.163 53.5963 11.155C53.4743 11.1476 53.3521 11.1434 53.2298 11.1423C53.1074 11.1413 52.9852 11.1437 52.863 11.1495C52.7408 11.1553 52.6189 11.1643 52.4972 11.1765C52.3755 11.1892 52.2543 11.2051 52.1335 11.2241C52.0127 11.2437 51.8925 11.2665 51.7729 11.2924C51.6533 11.3178 51.5345 11.3469 51.4165 11.3797C51.2986 11.412 51.1816 11.4478 51.0655 11.4869C50.9495 11.5256 50.8347 11.5676 50.7209 11.6131C50.6072 11.6581 50.4948 11.7066 50.3837 11.7585C50.2726 11.8098 50.1631 11.8643 50.055 11.922C49.9469 11.9792 49.8404 12.0395 49.7356 12.103C49.6308 12.1666 49.5278 12.233 49.4266 12.3023C49.3255 12.3711 49.2263 12.4429 49.1291 12.5175C49.0318 12.5921 48.9367 12.6694 48.8437 12.7493C48.7507 12.8292 48.66 12.9118 48.5715 12.997C48.483 13.0817 48.3968 13.1691 48.3131 13.2591C48.2294 13.3485 48.1482 13.4403 48.0695 13.5346C47.9908 13.6288 47.9147 13.7251 47.8413 13.8236C47.7679 13.922 47.6972 14.0223 47.6293 14.1245C47.5613 14.2266 47.4962 14.3306 47.434 14.4365C47.3717 14.5424 47.3124 14.6498 47.256 14.7588C47.1997 14.8684 47.1463 14.979 47.096 15.0907C47.0457 15.2029 46.9985 15.3165 46.9544 15.4313C46.9103 15.5462 46.8693 15.6621 46.8315 15.7791C46.7937 15.8961 46.7592 16.0141 46.7279 16.1332C46.6966 16.2518 46.6685 16.3714 46.6437 16.4921C46.619 16.6122 46.5975 16.7332 46.5794 16.8549C46.5612 16.9767 46.5464 17.0987 46.5349 17.2209C46.5234 17.3437 46.5153 17.4665 46.5105 17.5893C46.5058 17.7121 46.5043 17.8352 46.5063 17.9585C46.5082 18.0813 46.5135 18.2041 46.5222 18.3269C46.5309 18.4497 46.5429 18.572 46.5583 18.6937C46.5737 18.816 46.5924 18.9375 46.6144 19.0582C46.6364 19.1794 46.6617 19.2998 46.6903 19.4194C46.7189 19.5391 46.7507 19.6578 46.7858 19.7759C46.8209 19.8934 46.8592 20.0101 46.9007 20.126C46.9422 20.2414 46.9868 20.3557 47.0345 20.469C47.0822 20.5823 47.133 20.6943 47.1869 20.8049C47.2407 20.9155 47.2975 21.0243 47.3574 21.1312C47.4172 21.2386 47.4799 21.3442 47.5454 21.448C47.6111 21.5518 47.6795 21.6536 47.7506 21.7537C47.8218 21.8543 47.8956 21.9524 47.9721 22.0482C48.0487 22.1441 48.1277 22.2378 48.2094 22.3293C48.291 22.4208 48.3751 22.5101 48.4616 22.5969C48.5482 22.6842 48.637 22.7689 48.7281 22.8509C48.8193 22.933 48.9126 23.0124 49.0081 23.0891C49.1036 23.1659 49.2011 23.24 49.3007 23.3114C49.4003 23.3829 49.5017 23.4517 49.605 23.5179C49.7083 23.5835 49.8133 23.6463 49.9201 23.706C50.0269 23.7664 50.1352 23.8235 50.2451 23.8775C50.3549 23.9315 50.4662 23.9826 50.5788 24.0308C50.6915 24.0784 50.8054 24.1231 50.9205 24.165C51.0356 24.2062 51.1518 24.2446 51.269 24.2801C51.3862 24.315 51.5043 24.3468 51.6232 24.3754C51.7422 24.4039 51.8618 24.4293 51.9822 24.4516C52.1025 24.4738 52.2233 24.4926 52.3447 24.5079C52.4661 24.5233 52.5877 24.5353 52.7097 24.5437C52.8318 24.5522 52.9539 24.5574 53.0762 24.5596C53.1985 24.5611 53.3208 24.5596 53.443 24.5548C53.5652 24.5495 53.6872 24.5411 53.809 24.5294C53.9307 24.5177 54.052 24.5029 54.173 24.4849C54.2939 24.4664 54.4143 24.4447 54.5341 24.4198C54.6538 24.3944 54.7728 24.3661 54.891 24.3349C55.0092 24.3031 55.1264 24.2682 55.2428 24.2301C55.3591 24.1919 55.4743 24.1507 55.5883 24.1062C55.7023 24.0617 55.8151 24.0141 55.9266 23.9633C56.0382 23.9125 56.1482 23.8587 56.2566 23.8021C56.365 23.7455 56.4718 23.6856 56.5771 23.6227C56.6824 23.5602 56.7858 23.4946 56.8874 23.4258C56.9889 23.3575 57.0887 23.2864 57.1866 23.2122C57.2839 23.1386 57.3795 23.0621 57.4732 22.9827C57.5668 22.9033 57.6581 22.8216 57.7471 22.7374C57.8366 22.6532 57.9234 22.5667 58.0076 22.4778C58.0918 22.3883 58.1737 22.2968 58.2532 22.2031C58.3326 22.1094 58.4092 22.0139 58.4829 21.9164C58.5571 21.8185 58.6286 21.7185 58.6976 21.6163C58.766 21.5147 58.8318 21.4112 58.895 21.3059C58.9576 21.2005 59.0176 21.0933 59.075 20.9843L88.1585 20.9446C88.2548 20.9452 88.3506 20.9518 88.4459 20.9645C88.5411 20.9772 88.635 20.9962 88.7277 21.0216C88.8209 21.0465 88.9119 21.0775 89.0009 21.1145C89.0898 21.1516 89.1758 21.1942 89.259 21.2424C89.3421 21.2906 89.4221 21.3438 89.499 21.402C89.5753 21.4607 89.6477 21.5242 89.7161 21.5925C89.7845 21.6603 89.8482 21.7322 89.9072 21.8085C89.966 21.8852 90.02 21.9652 90.069 22.0482L91.04 23.7473L109.703 56.2999L110.887 54.2435C110.98 54.0816 111.068 53.917 111.15 53.7497C111.232 53.5819 111.309 53.4117 111.38 53.2392C111.451 53.0667 111.517 52.892 111.576 52.7152C111.636 52.5379 111.69 52.3589 111.738 52.1784C111.786 51.998 111.828 51.8162 111.864 51.633C111.9 51.4493 111.93 51.2648 111.954 51.0796C111.978 50.8944 111.996 50.7086 112.008 50.5222C112.02 50.3354 112.026 50.1485 112.025 49.9617C112.025 49.7749 112.018 49.5883 112.006 49.4019C111.994 49.2156 111.975 49.0298 111.95 48.8446C111.926 48.6593 111.895 48.4751 111.858 48.292C111.821 48.1088 111.778 47.927 111.729 47.7465C111.681 47.5661 111.626 47.3874 111.566 47.2106C111.506 47.0338 111.44 46.8594 111.368 46.6874C111.296 46.5148 111.219 46.3449 111.136 46.1776C111.053 46.0104 110.965 45.846 110.871 45.6846Z"   fill="#2E73BA" >
</path>
<path d="M87.1085 4.2874C87.0159 4.1265 86.9182 3.96849 86.8156 3.81342C86.7129 3.65886 86.6056 3.50774 86.4935 3.36006C86.3809 3.21237 86.2637 3.06867 86.1422 2.92894C86.0201 2.78867 85.8938 2.65291 85.7632 2.52163C85.6327 2.38984 85.498 2.26254 85.359 2.13974C85.2201 2.01695 85.0772 1.89889 84.9303 1.78562C84.7841 1.67234 84.6341 1.56385 84.4804 1.46009C84.3267 1.35636 84.1699 1.25789 84.0098 1.16475C83.8498 1.07159 83.687 0.983705 83.5212 0.901157C83.3554 0.819116 83.187 0.742355 83.0159 0.6709C82.8454 0.599447 82.6725 0.533541 82.4972 0.473208C82.3225 0.413385 82.1457 0.359135 81.9667 0.310432C81.7883 0.262263 81.6086 0.219667 81.4275 0.182619C81.246 0.14608 81.0636 0.115648 80.8804 0.0912968C80.6973 0.066437 80.5134 0.0476345 80.3286 0.0349381C80.1439 0.0227504 79.9592 0.0164022 79.7744 0.0158691L48.9857 0.0158691C48.8006 0.0164022 48.6158 0.023017 48.4312 0.0357134C48.2466 0.0484341 48.0626 0.0669458 47.8791 0.0912968C47.6957 0.116181 47.5133 0.146881 47.3318 0.183395C47.1504 0.220466 46.9704 0.263062 46.7918 0.311232C46.6131 0.359934 46.4362 0.414184 46.261 0.473984C46.0859 0.534341 45.913 0.600246 45.742 0.6717C45.5712 0.743154 45.4029 0.820156 45.2369 0.902729C45.0711 0.985309 44.9081 1.07317 44.7479 1.16633C44.5877 1.2595 44.4307 1.35767 44.2769 1.46089C44.1231 1.56464 43.9729 1.67315 43.826 1.78642C43.6793 1.8997 43.5363 2.01772 43.3972 2.14051C43.2581 2.26334 43.1232 2.39062 42.9923 2.52243C42.8614 2.65369 42.7349 2.7892 42.6129 2.92894C42.4908 3.0692 42.3734 3.21291 42.2607 3.36006C42.148 3.50774 42.0401 3.65886 41.9372 3.81342C41.8342 3.96849 41.7364 4.1265 41.6437 4.2874L27.1178 29.6943L26.9599 29.6943C26.838 29.6943 26.7161 29.6977 26.5943 29.7046C26.4725 29.712 26.351 29.7223 26.2298 29.7356C26.1086 29.7493 25.9879 29.7666 25.8676 29.7872C25.7473 29.8073 25.6277 29.8309 25.5087 29.8579C25.3898 29.8849 25.2716 29.915 25.1543 29.9484C25.0369 29.9817 24.9206 30.0185 24.8053 30.0587C24.69 30.0984 24.5758 30.1415 24.4629 30.1882C24.3499 30.2342 24.2383 30.2834 24.128 30.3358C24.0177 30.3882 23.9089 30.4436 23.8017 30.5018C23.6945 30.5605 23.5889 30.6219 23.485 30.686C23.3811 30.75 23.2791 30.8172 23.1788 30.8876C23.0786 30.9575 22.9804 31.03 22.8841 31.1052C22.7878 31.1804 22.6937 31.2582 22.6017 31.3386C22.5097 31.419 22.42 31.5022 22.3326 31.5879C22.2451 31.6731 22.16 31.761 22.0774 31.8515C21.9947 31.9415 21.9146 32.0339 21.837 32.1286C21.7594 32.2233 21.6844 32.32 21.6121 32.4184C21.5398 32.5174 21.4702 32.6182 21.4034 32.7209C21.3366 32.8236 21.2727 32.9279 21.2116 33.0337C21.1505 33.1401 21.0923 33.2479 21.0371 33.3569C20.9819 33.4664 20.9297 33.5774 20.8805 33.6895C20.8314 33.8017 20.7853 33.9153 20.7423 34.0302C20.6994 34.145 20.6596 34.261 20.623 34.3779C20.5864 34.4949 20.553 34.6129 20.5228 34.732C20.4927 34.8506 20.4658 34.9702 20.4421 35.0909C20.4184 35.211 20.3981 35.3317 20.3811 35.4529C20.3641 35.5747 20.3504 35.6967 20.3401 35.819C20.3297 35.9412 20.3227 36.0635 20.319 36.1858C20.3153 36.3086 20.315 36.4314 20.3181 36.5542C20.3211 36.6764 20.3274 36.7987 20.3372 36.921C20.3469 37.0433 20.3599 37.1653 20.3763 37.287C20.3927 37.4082 20.4124 37.5292 20.4354 37.6498C20.4584 37.7705 20.4847 37.8902 20.5143 38.0087C20.5438 38.1278 20.5766 38.2461 20.6126 38.3636C20.6486 38.4806 20.6878 38.5965 20.7301 38.7114C20.7725 38.8268 20.818 38.9406 20.8666 39.0528C20.9151 39.1655 20.9667 39.2767 21.0214 39.3862C21.076 39.4958 21.1336 39.6038 21.1942 39.7102C21.2547 39.8166 21.3181 39.9214 21.3844 40.0246C21.4507 40.1278 21.5197 40.2289 21.5915 40.3279C21.6633 40.4269 21.7378 40.524 21.8149 40.6193C21.892 40.714 21.9716 40.8069 22.0538 40.898C22.136 40.9885 22.2206 41.0766 22.3076 41.1623C22.3946 41.2486 22.4839 41.3323 22.5755 41.4132C22.6671 41.4942 22.7608 41.5726 22.8566 41.6483C22.9525 41.7239 23.0504 41.797 23.1502 41.8674C23.2501 41.9378 23.3518 42.0055 23.4553 42.0706C23.5589 42.1352 23.6642 42.1969 23.7711 42.2556C23.878 42.3149 23.9865 42.371 24.0965 42.424C24.2065 42.4769 24.3178 42.5269 24.4306 42.574C24.5433 42.6206 24.6572 42.6643 24.7723 42.705C24.8875 42.7453 25.0036 42.7826 25.1208 42.817C25.2379 42.8509 25.3559 42.8815 25.4748 42.9091C25.5936 42.9366 25.7131 42.961 25.8333 42.9821C25.9534 43.0028 26.0741 43.0202 26.1952 43.0345C26.3163 43.0494 26.4378 43.0605 26.5595 43.0679C26.6812 43.0752 26.8031 43.0795 26.925 43.0806C27.047 43.0811 27.1689 43.0784 27.2907 43.0726C27.4125 43.0668 27.5341 43.0575 27.6554 43.0448C27.7767 43.0321 27.8976 43.0163 28.018 42.9972C28.1385 42.9781 28.2583 42.9557 28.3775 42.9297C28.4967 42.9038 28.6151 42.8744 28.7328 42.8416C28.8504 42.8093 28.967 42.7735 29.0826 42.7344C29.1984 42.6957 29.3128 42.6537 29.4261 42.6082C29.5395 42.5631 29.6516 42.515 29.7623 42.4637C29.873 42.4123 29.9823 42.3578 30.09 42.3001C30.1977 42.2425 30.3038 42.182 30.4082 42.1191C30.5127 42.0556 30.6154 41.9894 30.7161 41.9206C30.817 41.8513 30.9158 41.7793 31.0127 41.7046C31.1096 41.6305 31.2044 41.5535 31.2971 41.4736C31.3897 41.3937 31.4802 41.3114 31.5683 41.2267C31.6566 41.1419 31.7424 41.0549 31.8258 40.9654C31.9092 40.876 31.9901 40.7844 32.0685 40.6907C32.147 40.5965 32.2228 40.5005 32.2959 40.4025C32.3691 40.3041 32.4395 40.204 32.5071 40.1024C32.5749 40.0003 32.6397 39.8962 32.7017 39.7904C32.7638 39.685 32.8228 39.5778 32.879 39.4688C32.9351 39.3598 32.9882 39.2494 33.0384 39.1377C33.0885 39.026 33.1355 38.913 33.1794 38.7987C33.2234 38.6838 33.2641 38.5682 33.3017 38.4517C33.3394 38.3353 33.3738 38.2178 33.4049 38.0992C33.4362 37.9801 33.4641 37.8608 33.4887 37.7411C33.5134 37.621 33.5348 37.5 33.5528 37.3783C33.5709 37.2571 33.5856 37.1356 33.597 37.0139C33.6084 36.8916 33.6165 36.7691 33.6212 36.6463C33.626 36.524 33.6273 36.4015 33.6253 36.2787C33.6233 36.1558 33.618 36.0333 33.6093 35.9111C33.6006 35.7888 33.5886 35.6668 33.5733 35.545C33.558 35.4233 33.5393 35.3021 33.5173 35.1814C33.4954 35.0607 33.4701 34.9408 33.4415 34.8217C33.413 34.7026 33.3813 34.5843 33.3462 34.4668C33.3113 34.3493 33.2731 34.2329 33.2317 34.1175C33.1903 34.0021 33.1459 33.8878 33.0982 33.7745C33.0507 33.6618 33 33.5504 32.9462 33.4402C32.8926 33.3302 32.8359 33.2217 32.7763 33.1147C32.7167 33.0078 32.6541 32.9025 32.5887 32.7987L47.0989 7.4474C47.1469 7.36376 47.2002 7.28359 47.2587 7.20682C47.3171 7.13006 47.3802 7.05757 47.4481 6.98929C47.516 6.921 47.5879 6.85721 47.664 6.79794C47.7402 6.73919 47.8198 6.68544 47.9029 6.63677C47.986 6.58806 48.0719 6.54517 48.1605 6.50813C48.2492 6.47055 48.3399 6.43905 48.4326 6.41365C48.5253 6.38824 48.6193 6.36919 48.7145 6.35649C48.8097 6.34324 48.9054 6.33636 49.0015 6.33585L88.2847 6.33585L87.1085 4.2874Z"   fill="#6DA230" >
</path>
<path d="M1.13682 45.7324C1.04451 45.8939 0.957512 46.0582 0.875827 46.2255C0.794197 46.3927 0.71804 46.5624 0.647358 46.7344C0.576728 46.9064 0.511729 47.0806 0.452363 47.2568C0.393049 47.4331 0.339496 47.6112 0.291708 47.7911C0.243921 47.9711 0.202026 48.1524 0.166028 48.335C0.129976 48.5176 0.0999236 48.7013 0.0758717 48.886C0.0517674 49.0708 0.0336621 49.256 0.0215572 49.4418C0.00950508 49.6276 0.003479 49.8136 0.003479 50C0.003479 50.1863 0.00950508 50.3723 0.0215572 50.5581C0.0336621 50.7439 0.0517674 50.9292 0.0758717 51.1139C0.0999236 51.2986 0.129976 51.4823 0.166028 51.6649C0.202026 51.8475 0.243921 52.0288 0.291708 52.2088C0.339496 52.3888 0.393049 52.5668 0.452363 52.7431C0.511729 52.9194 0.576728 53.0935 0.647358 53.2655C0.71804 53.4381 0.794197 53.6077 0.875827 53.7745C0.957512 53.9418 1.04451 54.1061 1.13682 54.2675L16.5233 81.0639C16.6162 81.2248 16.7143 81.3826 16.8175 81.5371C16.9207 81.6917 17.0288 81.8425 17.1418 81.9896C17.2547 82.1373 17.3724 82.2808 17.4947 82.42C17.617 82.5597 17.7436 82.6952 17.8748 82.8265C18.0059 82.9577 18.1411 83.0847 18.2805 83.2076C18.4198 83.3298 18.5629 83.4476 18.7099 83.5609C18.8569 83.6736 19.0074 83.7816 19.1614 83.8848C19.3154 83.988 19.4726 84.0863 19.633 84.1794C19.7933 84.272 19.9566 84.3594 20.1226 84.4414C20.2886 84.5234 20.4572 84.6002 20.6282 84.6716C20.7991 84.7426 20.9723 84.808 21.1476 84.8678C21.3229 84.9276 21.4999 84.9813 21.6786 85.0289C21.8574 85.0771 22.0375 85.1194 22.219 85.156C22.4005 85.1919 22.583 85.2222 22.7665 85.2465C22.9499 85.2709 23.134 85.2891 23.3186 85.3013C23.5033 85.3134 23.6881 85.3195 23.8731 85.3195L52.9961 85.3195C52.9961 85.3672 53.0435 85.4148 53.0751 85.4624C53.1357 85.5694 53.1992 85.6744 53.2655 85.7776C53.3319 85.8809 53.401 85.9823 53.4729 86.0817C53.5448 86.1812 53.6193 86.2786 53.6966 86.3739C53.7738 86.4692 53.8536 86.5623 53.9359 86.6534C54.0182 86.7445 54.1029 86.8331 54.1901 86.9194C54.2773 87.0057 54.3667 87.0893 54.4584 87.1703C54.5503 87.2518 54.6441 87.3306 54.7402 87.4069C54.8363 87.4831 54.9343 87.5564 55.0343 87.6268C55.1344 87.6977 55.2363 87.7657 55.3401 87.8308C55.4438 87.8959 55.5493 87.9579 55.6565 88.0166C55.7636 88.0759 55.8723 88.1323 55.9826 88.1857C56.0926 88.2387 56.2042 88.2887 56.3174 88.3358C56.4305 88.3829 56.5447 88.4269 56.66 88.4676C56.7752 88.5083 56.8915 88.546 57.0089 88.5803C57.1268 88.6147 57.2452 88.6457 57.3642 88.6732C57.4832 88.7008 57.6028 88.7251 57.7234 88.7463C57.8439 88.7675 57.965 88.7852 58.0865 88.7995C58.2081 88.8143 58.3297 88.8254 58.4513 88.8328C58.5734 88.8408 58.6958 88.845 58.8184 88.8455C58.9405 88.8466 59.0625 88.8442 59.1847 88.8384C59.3068 88.8326 59.4286 88.8235 59.5502 88.8114C59.6718 88.7987 59.7931 88.7826 59.9141 88.763C60.0347 88.7439 60.1547 88.7214 60.2741 88.6955C60.3941 88.6695 60.5131 88.6404 60.631 88.6081C60.7488 88.5753 60.8657 88.5396 60.9815 88.5009C61.0978 88.4618 61.2128 88.4197 61.3265 88.3747C61.4401 88.3292 61.5525 88.2808 61.6636 88.2294C61.7746 88.1776 61.8841 88.123 61.992 88.0659C62.0999 88.0082 62.2062 87.9476 62.3109 87.884C62.4157 87.8205 62.5185 87.7541 62.6196 87.6848C62.7206 87.6159 62.8199 87.5442 62.9172 87.4696C63.0146 87.395 63.1096 87.3177 63.2022 87.2377C63.2954 87.1578 63.3861 87.0752 63.4746 86.99C63.563 86.9053 63.649 86.8183 63.7327 86.7288C63.8164 86.6389 63.8977 86.5468 63.9767 86.4525C64.055 86.3584 64.1312 86.2622 64.2048 86.1643C64.278 86.0659 64.3485 85.9656 64.4164 85.8634C64.4843 85.7607 64.5492 85.6564 64.6114 85.5506C64.674 85.4447 64.7335 85.3372 64.7898 85.2282C64.8461 85.1192 64.8993 85.0085 64.9493 84.8963C64.9998 84.7841 65.0472 84.6709 65.0914 84.5565C65.135 84.4417 65.1758 84.3258 65.2137 84.2088C65.2516 84.0918 65.2861 83.9738 65.3172 83.8547C65.3487 83.7361 65.3769 83.6165 65.4016 83.4958C65.4263 83.3757 65.4476 83.2547 65.4656 83.1329C65.484 83.0112 65.499 82.8892 65.5106 82.7669C65.5222 82.6441 65.5303 82.5213 65.535 82.3985C65.5398 82.2758 65.5411 82.153 65.539 82.0301C65.5369 81.9073 65.5316 81.7846 65.5232 81.6617C65.5143 81.5389 65.5021 81.4167 65.4869 81.2949C65.4716 81.1726 65.4529 81.0509 65.4308 80.9297C65.4087 80.809 65.3835 80.6889 65.355 80.5692C65.3266 80.4496 65.2948 80.331 65.2595 80.2135C65.2242 80.0956 65.1861 79.9785 65.1451 79.8626C65.1034 79.7472 65.0588 79.6329 65.0108 79.5196C64.9635 79.4063 64.9127 79.2944 64.8585 79.1838C64.8048 79.0736 64.7482 78.9649 64.6887 78.8574C64.6287 78.75 64.5658 78.6444 64.5001 78.5406C64.4348 78.4369 64.3666 78.335 64.2956 78.235C64.2245 78.1349 64.1506 78.037 64.0738 77.9412C63.9974 77.8449 63.9185 77.7509 63.8369 77.6593C63.7554 77.5678 63.6711 77.4786 63.5843 77.3918C63.498 77.305 63.4093 77.2205 63.3183 77.1385C63.2272 77.0565 63.1341 76.9771 63.0388 76.9003C62.943 76.8231 62.8454 76.7487 62.7459 76.6772C62.6464 76.6058 62.5451 76.5372 62.442 76.4716C62.3388 76.4054 62.2338 76.3424 62.127 76.2826C62.0202 76.2228 61.9117 76.1657 61.8017 76.1111C61.6922 76.0571 61.5812 76.0063 61.4686 75.9587C61.3559 75.9106 61.242 75.8655 61.1267 75.8237C61.012 75.7824 60.896 75.7441 60.7786 75.7086C60.6612 75.6736 60.5431 75.6419 60.4241 75.6133C60.3051 75.5842 60.1857 75.5587 60.0657 75.5371C59.9451 75.5148 59.8244 75.4961 59.7033 75.4807C59.5818 75.4654 59.4599 75.4535 59.3378 75.445C59.2162 75.436 59.0941 75.4307 58.9715 75.4291C58.8494 75.4269 58.7273 75.4283 58.6052 75.4331C58.4831 75.4384 58.361 75.4466 58.2389 75.4577C58.1173 75.4693 57.996 75.4844 57.875 75.5029C57.7544 75.5214 57.6342 75.5432 57.5142 75.568C57.3947 75.5929 57.2758 75.6212 57.1573 75.653C57.0389 75.6843 56.9219 75.7189 56.806 75.757C56.6898 75.7951 56.5745 75.8364 56.4603 75.8809C56.346 75.9253 56.2334 75.9727 56.1224 76.023C56.0107 76.0738 55.9006 76.1275 55.7921 76.1842C55.6836 76.2408 55.5767 76.3006 55.4715 76.3636C55.3662 76.4261 55.2628 76.4914 55.1611 76.5597C55.0595 76.628 54.9598 76.6992 54.862 76.7733C54.7642 76.8469 54.6685 76.9233 54.575 77.0027C54.4814 77.0821 54.3901 77.1639 54.3009 77.2481C54.2118 77.3322 54.125 77.4188 54.0407 77.5077C53.9563 77.5966 53.8744 77.6879 53.7951 77.7816C53.7156 77.8753 53.6388 77.9709 53.5647 78.0682C53.4906 78.1661 53.4191 78.2659 53.3504 78.3676C53.2817 78.4692 53.2158 78.573 53.1528 78.6788C53.0898 78.7842 53.0297 78.8911 52.9724 78.9996L23.881 79.0393C23.7848 79.0393 23.689 79.0329 23.5937 79.0202C23.4983 79.0075 23.4041 78.9884 23.3112 78.963C23.2183 78.9382 23.1274 78.9072 23.0384 78.8701C22.9495 78.8336 22.8633 78.7913 22.7799 78.7431C22.6964 78.6949 22.6166 78.6415 22.5401 78.5827C22.4636 78.524 22.3911 78.4605 22.3228 78.3922C22.2545 78.3244 22.1909 78.2522 22.1319 78.1754C22.0729 78.0992 22.0192 78.0192 21.9705 77.9356L20.9995 76.2366L2.3289 43.684L1.13682 45.7324Z"   fill="#6DA230" >
</path>
</g>
<path     fill="url(#linear_fill_0_1_0_0)"  d="M150.824 75.512L135.92 75.512L144.632 45.056L185.528 45.056L181.856 58.016L155.864 58.016L150.824 75.512ZM147.008 36.776L143.552 27.488L194.96 27.488L193.448 32.744C193.208 33.56 192.896 34.412 192.512 35.3C192.128 36.188 191.684 37.016 191.18 37.784C190.676 38.552 190.1 39.188 189.452 39.692C188.804 40.196 188.12 40.448 187.4 40.448L145.928 40.448L147.008 36.776Z">
</path>
<path     fill="url(#linear_fill_0_1_1_0)"  d="M226.424 62.552L231.392 45.056L246.296 45.056L239.96 67.16C239.576 68.456 238.988 69.62 238.196 70.652C237.404 71.684 236.468 72.56 235.388 73.28C234.308 74 233.132 74.552 231.86 74.936C230.588 75.32 229.28 75.512 227.936 75.512L196.616 75.512C195.32 75.512 194.144 75.32 193.088 74.936C192.032 74.552 191.168 74 190.496 73.28C189.824 72.56 189.368 71.684 189.128 70.652C188.888 69.62 188.96 68.456 189.344 67.16L195.68 45.056L210.584 45.056L205.616 62.552L226.424 62.552ZM232.688 40.448L236.432 27.488L251.336 27.488L247.592 40.448L232.688 40.448ZM196.976 40.448L200.72 27.488L215.624 27.488L211.88 40.448L196.976 40.448Z">
</path>
<path     fill="url(#linear_fill_0_1_2_0)"  d="M258.032 58.016C256.736 58.016 255.548 57.824 254.468 57.44C253.388 57.056 252.512 56.504 251.84 55.784C251.168 55.064 250.724 54.188 250.508 53.156C250.292 52.124 250.376 50.96 250.76 49.664L252.056 45.056L290.72 45.056C292.016 45.056 293.204 45.248 294.284 45.632C295.364 46.016 296.24 46.568 296.912 47.288C297.584 48.008 298.028 48.884 298.244 49.916C298.46 50.948 298.376 52.112 297.992 53.408L294.032 67.16C293.648 68.456 293.06 69.62 292.268 70.652C291.476 71.684 290.54 72.56 289.46 73.28C288.38 74 287.204 74.552 285.932 74.936C284.66 75.32 283.352 75.512 282.008 75.512L243.344 75.512L247.088 62.552L280.496 62.552L281.792 58.016L258.032 58.016ZM303.896 32.744C303.656 33.56 303.344 34.412 302.96 35.3C302.576 36.188 302.132 37.016 301.628 37.784C301.124 38.552 300.548 39.188 299.9 39.692C299.252 40.196 298.568 40.448 297.848 40.448L253.352 40.448L254.72 35.84C255.104 34.544 255.692 33.38 256.484 32.348C257.276 31.316 258.212 30.44 259.292 29.72C260.372 29 261.548 28.448 262.82 28.064C264.092 27.68 265.4 27.488 266.744 27.488L305.408 27.488L303.896 32.744Z">
</path>
<path     fill="url(#linear_fill_0_1_3_0)"  d="M297.488 75.512L306.2 45.056L321.104 45.056L312.392 75.512L297.488 75.512ZM307.496 40.448L311.24 27.488L326.144 27.488L322.4 40.448L307.496 40.448Z">
</path>
<path     fill="url(#linear_fill_0_1_4_0)"  d="M357.68 62.552L362.648 45.056L377.552 45.056L371.216 67.16C370.832 68.456 370.244 69.62 369.452 70.652C368.66 71.684 367.724 72.56 366.644 73.28C365.564 74 364.388 74.552 363.116 74.936C361.844 75.32 360.536 75.512 359.192 75.512L327.872 75.512C326.576 75.512 325.4 75.32 324.344 74.936C323.288 74.552 322.424 74 321.752 73.28C321.08 72.56 320.624 71.684 320.384 70.652C320.144 69.62 320.216 68.456 320.6 67.16L326.936 45.056L341.84 45.056L336.872 62.552L357.68 62.552ZM380.216 35.84L378.848 40.448L328.232 40.448L329.6 35.84C329.984 34.544 330.572 33.38 331.364 32.348C332.156 31.316 333.092 30.44 334.172 29.72C335.252 29 336.428 28.448 337.7 28.064C338.972 27.68 340.28 27.488 341.624 27.488L372.944 27.488C374.24 27.488 375.428 27.68 376.508 28.064C377.588 28.448 378.464 29 379.136 29.72C379.808 30.44 380.252 31.316 380.468 32.348C380.684 33.38 380.6 34.544 380.216 35.84Z">
</path>
<path     fill="url(#linear_fill_0_1_5_0)"  d="M374.6 75.512L383.312 45.056L413.12 45.056L417.368 53.408L417.872 53.408L420.248 45.056L435.152 45.056L426.44 75.512L410.528 75.512L397.424 49.664L396.92 49.664L389.504 75.512L374.6 75.512ZM384.608 40.448L388.352 27.488L404.192 27.488L410.744 40.448L384.608 40.448ZM421.544 40.448L425.288 27.488L440.192 27.488L436.448 40.448L421.544 40.448Z">
</path>
<path     fill="url(#linear_fill_0_1_6_0)"  d="M455.312 51.536L452.504 45.056L479.072 45.056L472.52 51.536L483.104 75.512L466.04 75.512L460.64 63.272L448.184 75.512L463.016 75.512L428.168 109.064L443.792 84.152L423.128 84.152L455.312 51.536ZM444.872 27.488L461.864 27.488L467.336 39.872L479.864 27.488L496.856 27.488L483.752 40.448L450.488 40.448L444.872 27.488Z">
</path>
<defs>
<clipPath id="clip-path-Z_gb_wSvvdYUS8EpuK-ea">
<path d="M0 100L112 100L112 0L0 0L0 100Z" fill="white"/>
</clipPath>
<linearGradient id="linear_fill_0_1_0_0" x1="505.652099609375" y1="94.9423828125" x2="159.781494140625" y2="27.488006591796875" gradientUnits="userSpaceOnUse">
<stop offset="0" stop-color="#323232"  />
<stop offset="1" stop-color="#3F3F3F"  />
</linearGradient>
<linearGradient id="linear_fill_0_1_1_0" x1="505.652099609375" y1="94.9423828125" x2="159.781494140625" y2="27.488006591796875" gradientUnits="userSpaceOnUse">
<stop offset="0" stop-color="#323232"  />
<stop offset="1" stop-color="#3F3F3F"  />
</linearGradient>
<linearGradient id="linear_fill_0_1_2_0" x1="505.652099609375" y1="94.9423828125" x2="159.781494140625" y2="27.488006591796875" gradientUnits="userSpaceOnUse">
<stop offset="0" stop-color="#323232"  />
<stop offset="1" stop-color="#3F3F3F"  />
</linearGradient>
<linearGradient id="linear_fill_0_1_3_0" x1="505.652099609375" y1="94.9423828125" x2="159.781494140625" y2="27.488006591796875" gradientUnits="userSpaceOnUse">
<stop offset="0" stop-color="#323232"  />
<stop offset="1" stop-color="#3F3F3F"  />
</linearGradient>
<linearGradient id="linear_fill_0_1_4_0" x1="505.652099609375" y1="94.9423828125" x2="159.781494140625" y2="27.488006591796875" gradientUnits="userSpaceOnUse">
<stop offset="0" stop-color="#323232"  />
<stop offset="1" stop-color="#3F3F3F"  />
</linearGradient>
<linearGradient id="linear_fill_0_1_5_0" x1="505.652099609375" y1="94.9423828125" x2="159.781494140625" y2="27.488006591796875" gradientUnits="userSpaceOnUse">
<stop offset="0" stop-color="#323232"  />
<stop offset="1" stop-color="#3F3F3F"  />
</linearGradient>
<linearGradient id="linear_fill_0_1_6_0" x1="505.652099609375" y1="94.9423828125" x2="159.781494140625" y2="27.488006591796875" gradientUnits="userSpaceOnUse">
<stop offset="0" stop-color="#323232"  />
<stop offset="1" stop-color="#3F3F3F"  />
</linearGradient>
</defs>
</svg>
